<svg version="1.2" xmlns="http://www.w3.org/2000/svg" viewBox="82.99999999999993 62.999999999999936 1239 1575.0000000000002" width="620" height="789">
	<title>vr7e_hxni_201216</title>
	<defs>
		<linearGradient id="g1" x2="1" gradientUnits="userSpaceOnUse" gradientTransform="matrix(949.079,1905.768,-787.014,1250.539,614.145,-548.658)">
			<stop offset="0" stop-color="#ffffff"/>
			<stop offset="1" stop-color="#dbdbdb"/>
		</linearGradient>
		<linearGradient id="g2" x2="1" gradientUnits="userSpaceOnUse" gradientTransform="matrix(1041.902,1854.786,-720.172,1289.096,542.595,-558.979)">
			<stop offset="0" stop-color="#ffffff"/>
			<stop offset="1" stop-color="#dbdbdb"/>
		</linearGradient>
		<linearGradient id="g3" x2="1" gradientUnits="userSpaceOnUse" gradientTransform="matrix(-1265.041,-2514.168,899.907,-1650.179,647.058,1984.215)">
			<stop offset="0" stop-color="#ffffff"/>
			<stop offset="1" stop-color="#eeeeee"/>
		</linearGradient>
	</defs>
	<style>
		.s0 { opacity: 0;mix-blend-mode: multiply;fill: #606060 } 
		.s1 { opacity: .05;mix-blend-mode: multiply;fill: #606060 } 
		.s2 { opacity: .09;mix-blend-mode: multiply;fill: #606060 } 
		.s3 { opacity: .14;mix-blend-mode: multiply;fill: #606060 } 
		.s4 { opacity: .19;mix-blend-mode: multiply;fill: #606060 } 
		.s5 { opacity: .24;mix-blend-mode: multiply;fill: #606060 } 
		.s6 { opacity: .29;mix-blend-mode: multiply;fill: #606060 } 
		.s7 { opacity: .33;mix-blend-mode: multiply;fill: #606060 } 
		.s8 { opacity: .38;mix-blend-mode: multiply;fill: #606060 } 
		.s9 { opacity: .43;mix-blend-mode: multiply;fill: #606060 } 
		.s10 { opacity: .47;mix-blend-mode: multiply;fill: #606060 } 
		.s11 { opacity: .53;mix-blend-mode: multiply;fill: #606060 } 
		.s12 { opacity: .57;mix-blend-mode: multiply;fill: #606060 } 
		.s13 { opacity: .62;mix-blend-mode: multiply;fill: #606060 } 
		.s14 { opacity: .67;mix-blend-mode: multiply;fill: #606060 } 
		.s15 { opacity: .71;mix-blend-mode: multiply;fill: #606060 } 
		.s16 { opacity: .76;mix-blend-mode: multiply;fill: #606060 } 
		.s17 { opacity: .81;mix-blend-mode: multiply;fill: #606060 } 
		.s18 { opacity: .86;mix-blend-mode: multiply;fill: #606060 } 
		.s19 { opacity: .91;mix-blend-mode: multiply;fill: #606060 } 
		.s20 { opacity: .95;mix-blend-mode: multiply;fill: #606060 } 
		.s21 { mix-blend-mode: multiply;fill: #606060 } 
		.s22 { fill: url(#g1) } 
		.s23 { fill: url(#g2) } 
		.s24 { fill: url(#g3) } 
		.s25 { opacity: .4;fill: #b7c6cc } 
		.s26 { mix-blend-mode: multiply;fill: #d6dfe4 } 
	</style>
	<g id="Layer 1">
		<g id="&lt;Group&gt;">
			<g id="&lt;Group&gt;">
			</g>
			<g id="&lt;Group&gt;">
				<g id="&lt;Group&gt;">
					<g id="&lt;Group&gt;" style="opacity: .5">
						<path id="&lt;Path&gt;" class="s0" d="m134.5 1556.6l67.3-1350.1 1092.9 54.4-67.2 1350.2z"/>
						<path id="&lt;Path&gt;" class="s1" d="m133.7 1555.1l67.2-1350.2 1093 54.4-67.2 1350.2z"/>
						<path id="&lt;Path&gt;" class="s2" d="m132.8 1553.5l67.3-1350.1 1093 54.4-67.3 1350.2z"/>
						<path id="&lt;Path&gt;" class="s3" d="m132 1552l67.2-1350.2 1093 54.4-67.2 1350.2z"/>
						<path id="&lt;Path&gt;" class="s4" d="m131.2 1550.4l67.2-1350.2 1093 54.5-67.2 1350.2z"/>
						<path id="&lt;Path&gt;" class="s5" d="m130.3 1548.9l67.3-1350.2 1093 54.4-67.3 1350.2z"/>
						<path id="&lt;Path&gt;" class="s6" d="m129.5 1547.3l67.2-1350.2 1093 54.5-67.2 1350.2z"/>
						<path id="&lt;Path&gt;" class="s7" d="m128.7 1545.8l67.2-1350.2 1093 54.4-67.2 1350.2z"/>
						<path id="&lt;Path&gt;" class="s8" d="m127.8 1544.2l67.3-1350.2 1093 54.5-67.3 1350.2z"/>
						<path id="&lt;Path&gt;" class="s9" d="m127 1542.7l67.2-1350.2 1093 54.4-67.2 1350.2z"/>
						<path id="&lt;Path&gt;" class="s10" d="m126.2 1541.1l67.2-1350.2 1093 54.5-67.2 1350.1z"/>
						<path id="&lt;Path&gt;" class="s11" d="m125.3 1539.6l67.3-1350.2 1093 54.4-67.3 1350.2z"/>
						<path id="&lt;Path&gt;" class="s12" d="m124.5 1538l67.2-1350.2 1093 54.5-67.2 1350.1z"/>
						<path id="&lt;Path&gt;" class="s13" d="m123.7 1536.5l67.2-1350.2 1093 54.4-67.3 1350.2z"/>
						<path id="&lt;Path&gt;" class="s14" d="m122.8 1534.9l67.3-1350.2 1093 54.4-67.3 1350.2z"/>
						<path id="&lt;Path&gt;" class="s15" d="m122 1533.4l67.2-1350.2 1093 54.4-67.2 1350.2z"/>
						<path id="&lt;Path&gt;" class="s16" d="m121.2 1531.8l67.2-1350.2 1093 54.4-67.3 1350.2z"/>
						<path id="&lt;Path&gt;" class="s17" d="m120.3 1530.2l67.3-1350.1 1092.9 54.4-67.2 1350.2z"/>
						<path id="&lt;Path&gt;" class="s18" d="m119.5 1528.7l67.2-1350.2 1093 54.4-67.2 1350.2z"/>
						<path id="&lt;Path&gt;" class="s19" d="m118.7 1527.1l67.2-1350.1 1093 54.4-67.3 1350.2z"/>
						<path id="&lt;Path&gt;" class="s20" d="m117.8 1525.6l67.3-1350.2 1092.9 54.4-67.2 1350.2z"/>
						<path id="&lt;Path&gt;" class="s21" d="m117 1524l67.2-1350.2 1093 54.5-67.2 1350.2z"/>
					</g>
					<path id="&lt;Path&gt;" class="s22" d="m117 1524l67.2-1350.2 1093 54.5-67.2 1350.2z"/>
				</g>
				<g id="&lt;Group&gt;">
					<g id="&lt;Group&gt;" style="opacity: .5">
						<path id="&lt;Path&gt;" class="s0" d="m172 1568l-1.6-1351.9 1091-1.3 1.6 1351.9z"/>
						<path id="&lt;Path&gt;" class="s1" d="m171.1 1566.5l-1.6-1351.9 1091-1.3 1.6 1351.9z"/>
						<path id="&lt;Path&gt;" class="s2" d="m170.2 1565l-1.6-1351.9 1091-1.3 1.6 1351.9z"/>
						<path id="&lt;Path&gt;" class="s3" d="m169.3 1563.5l-1.6-1351.9 1091-1.3 1.6 1351.9z"/>
						<path id="&lt;Path&gt;" class="s4" d="m168.3 1561.9l-1.6-1351.8 1091.1-1.3 1.6 1351.9z"/>
						<path id="&lt;Path&gt;" class="s5" d="m167.4 1560.4l-1.6-1351.8 1091.1-1.3 1.6 1351.8z"/>
						<path id="&lt;Path&gt;" class="s6" d="m166.5 1558.9l-1.6-1351.8 1091-1.3 1.6 1351.8z"/>
						<path id="&lt;Path&gt;" class="s7" d="m165.6 1557.4l-1.6-1351.8 1091-1.3 1.6 1351.8z"/>
						<path id="&lt;Path&gt;" class="s8" d="m164.7 1555.9l-1.6-1351.9 1091-1.2 1.6 1351.8z"/>
						<path id="&lt;Path&gt;" class="s9" d="m163.8 1554.4l-1.6-1351.9 1091-1.2 1.6 1351.8z"/>
						<path id="&lt;Path&gt;" class="s10" d="m162.9 1552.9l-1.6-1351.9 1091-1.3 1.6 1351.9z"/>
						<path id="&lt;Path&gt;" class="s11" d="m162 1551.4l-1.6-1351.9 1091-1.3 1.6 1351.9z"/>
						<path id="&lt;Path&gt;" class="s12" d="m161.1 1549.9l-1.6-1351.9 1091-1.3 1.6 1351.9z"/>
						<path id="&lt;Path&gt;" class="s13" d="m160.1 1548.4l-1.5-1351.9 1091-1.3 1.6 1351.9z"/>
						<path id="&lt;Path&gt;" class="s14" d="m159.2 1546.9l-1.6-1351.9 1091.1-1.3 1.6 1351.9z"/>
						<path id="&lt;Path&gt;" class="s15" d="m158.3 1545.3l-1.6-1351.8 1091.1-1.3 1.5 1351.9z"/>
						<path id="&lt;Path&gt;" class="s16" d="m157.4 1543.8l-1.6-1351.8 1091-1.3 1.6 1351.9z"/>
						<path id="&lt;Path&gt;" class="s17" d="m156.5 1542.3l-1.6-1351.8 1091-1.3 1.6 1351.8z"/>
						<path id="&lt;Path&gt;" class="s18" d="m155.6 1540.8l-1.6-1351.8 1091-1.3 1.6 1351.8z"/>
						<path id="&lt;Path&gt;" class="s19" d="m154.7 1539.3l-1.6-1351.8 1091-1.3 1.6 1351.8z"/>
						<path id="&lt;Path&gt;" class="s20" d="m153.8 1537.8l-1.6-1351.9 1091-1.2 1.6 1351.8z"/>
						<path id="&lt;Path&gt;" class="s21" d="m152.9 1536.3l-1.6-1351.9 1091-1.3 1.6 1351.9z"/>
					</g>
					<path id="&lt;Path&gt;" class="s23" d="m152.9 1536.3l-1.6-1351.9 1091-1.3 1.6 1351.9z"/>
				</g>
				<g id="&lt;Group&gt;">
					<g id="&lt;Group&gt;" style="opacity: .5">
						<path id="&lt;Path&gt;" class="s0" d="m218.4 1582.6l-46.4-1351 1015.7-34.9 46.4 1351.1z"/>
						<path id="&lt;Path&gt;" class="s1" d="m217.5 1581.2l-46.4-1351.1 1015.7-34.9 46.4 1351.1z"/>
						<path id="&lt;Path&gt;" class="s2" d="m216.6 1579.7l-46.4-1351.1 1015.7-34.8 46.4 1351z"/>
						<path id="&lt;Path&gt;" class="s3" d="m215.7 1578.2l-46.4-1351.1 1015.7-34.8 46.4 1351z"/>
						<path id="&lt;Path&gt;" class="s4" d="m214.8 1576.7l-46.4-1351 1015.7-34.9 46.4 1351.1z"/>
						<path id="&lt;Path&gt;" class="s5" d="m213.9 1575.2l-46.4-1351 1015.7-34.9 46.4 1351.1z"/>
						<path id="&lt;Path&gt;" class="s6" d="m213 1573.8l-46.4-1351.1 1015.7-34.9 46.4 1351.1z"/>
						<path id="&lt;Path&gt;" class="s7" d="m212.1 1572.3l-46.4-1351.1 1015.8-34.8 46.3 1351z"/>
						<path id="&lt;Path&gt;" class="s8" d="m211.2 1570.8l-46.4-1351.1 1015.8-34.8 46.3 1351z"/>
						<path id="&lt;Path&gt;" class="s9" d="m210.3 1569.3l-46.4-1351 1015.8-34.9 46.3 1351.1z"/>
						<path id="&lt;Path&gt;" class="s10" d="m209.4 1567.8l-46.4-1351 1015.8-34.9 46.3 1351.1z"/>
						<path id="&lt;Path&gt;" class="s11" d="m208.5 1566.4l-46.4-1351.1 1015.8-34.9 46.3 1351.1z"/>
						<path id="&lt;Path&gt;" class="s12" d="m207.6 1564.9l-46.4-1351.1 1015.8-34.8 46.3 1351z"/>
						<path id="&lt;Path&gt;" class="s13" d="m206.7 1563.4l-46.3-1351.1 1015.7-34.8 46.3 1351z"/>
						<path id="&lt;Path&gt;" class="s14" d="m205.8 1561.9l-46.3-1351 1015.7-34.9 46.3 1351.1z"/>
						<path id="&lt;Path&gt;" class="s15" d="m204.9 1560.4l-46.3-1351 1015.7-34.9 46.3 1351.1z"/>
						<path id="&lt;Path&gt;" class="s16" d="m204 1559l-46.3-1351.1 1015.7-34.9 46.3 1351.1z"/>
						<path id="&lt;Path&gt;" class="s17" d="m203.1 1557.5l-46.3-1351.1 1015.7-34.8 46.3 1351z"/>
						<path id="&lt;Path&gt;" class="s18" d="m202.2 1556l-46.3-1351.1 1015.7-34.8 46.3 1351z"/>
						<path id="&lt;Path&gt;" class="s19" d="m201.3 1554.5l-46.3-1351 1015.7-34.9 46.4 1351.1z"/>
						<path id="&lt;Path&gt;" class="s20" d="m200.4 1553l-46.3-1351 1015.7-34.9 46.4 1351.1z"/>
						<path id="&lt;Path&gt;" class="s21" d="m199.5 1551.6l-46.3-1351.1 1015.7-34.9 46.4 1351.1z"/>
					</g>
					<path id="&lt;Path&gt;" class="s24" d="m199.5 1551.6l-46.3-1351.1 1015.7-34.9 46.4 1351.1z"/>
				</g>
				<g id="&lt;Group&gt;">
					<path id="&lt;Path&gt;" class="s25" d="m537.9 212.1c0.8 0.7-17.7 2.4-25.7 3.6l-0.2 0.5 343.2 97.5 0.2-0.6c-5.6-5.6-19.3-17.6-18.4-17.8 6-1.4 12.1-2.7 18.4-3.6-6.1-6.5-18.3-20.7-17.5-21 8.1-2.2 16.9-3.8 26.1-4.7-5.8-4.5-17.8-14.7-17.2-15 6.7-2.7 14.8-4.3 23.3-4.9-8.4-7.9-17.5-15.6-23.7-24-0.6-0.7 21.7-3.9 32.2-5-6.8-5-20.1-16.5-19.4-16.8 8.4-2.5 18.5-2.8 28.4-3l0.2-0.6c-7.6-6.1-15.5-12.1-22.9-18.3-0.8-0.6 18.9-5.4 29.2-5.9l-342.8-97.4v0.3c5 5.3 17.3 16.9 16.5 17.1-6.3 2-13.5 2.9-20.4 4.1 2.6 2.8 21.7 21.2 21 21.4-9.1 2.5-18.8 4.3-28.6 5.8 2.3 1.9 14.8 12.3 14.1 15.1-0.8 3.3-17 6.4-20.1 6.8 7.3 5.3 19 13.4 13.7 16.9-3.3 2.1-9.6 2.4-14.3 3q-2 0.2-4 0.4c4.7 4.3 15.9 14 15 14.3-6.3 2.2-14.4 2.3-21.2 3.6 7 4.8 20.6 16 19.9 16.2-5.7 1.6-12.5 1.2-19.4 0.6 5.1 3.7 10.1 7.4 14.4 11.4z"/>
					<path id="&lt;Path&gt;" class="s26" d="m889 173c1.8-0.2 3.6-0.4 5.1-0.5l-342.8-97.4v0.3q0.9 1 2.1 2.2z"/>
					<path id="&lt;Path&gt;" class="s26" d="m855.4 313.1q-0.7-0.7-1.4-1.4l-339.1-96.4q-1.5 0.2-2.7 0.4l-0.2 0.5 343.2 97.5z"/>
				</g>
			</g>
			<g id="&lt;Group&gt;">
				<g id="&lt;Group&gt;">
					<g id="&lt;Group&gt;" style="opacity: .5">
					</g>
				</g>
				<g id="&lt;Group&gt;">
					<g id="&lt;Group&gt;" style="opacity: .5">
					</g>
				</g>
				<g id="&lt;Group&gt;">
					<g id="&lt;Group&gt;" style="opacity: .5">
					</g>
				</g>
				<g id="&lt;Group&gt;">
				</g>
			</g>
		</g>
	</g>
</svg>